<?xml version="1.0" standalone="no"?>
<!DOCTYPE svg PUBLIC "-//W3C//DTD SVG 1.1//EN" "http://www.w3.org/Graphics/SVG/1.1/DTD/svg11.dtd" >
<svg xmlns="http://www.w3.org/2000/svg" xmlns:xlink="http://www.w3.org/1999/xlink" version="1.1">
<metadata></metadata>
<defs>
<font id="reeji-sharp-blodgb1.0regular" horiz-adv-x="2048" >
<font-face units-per-em="2048" ascent="1759" descent="-289" />
<missing-glyph horiz-adv-x="1024" />
<glyph horiz-adv-x="1705" />
<glyph horiz-adv-x="1705" />
<glyph unicode="&#xd;" />
<glyph horiz-adv-x="1705" />
<glyph unicode=" "  horiz-adv-x="1024" />
<glyph unicode="&#x09;" horiz-adv-x="1024" />
<glyph unicode="&#xa0;" horiz-adv-x="1024" />
<glyph unicode="!" horiz-adv-x="659" d="M123 1464h414l-41 -1054h-332zM133 137q0 39 15.5 75t41 61.5t60.5 41t76 15.5q80 0 136 -56.5t56 -136.5t-56 -135t-136 -55t-136.5 55t-56.5 135z" />
<glyph unicode="&#x22;" horiz-adv-x="987" d="M123 1044l63 418h328l-147 -418h-244zM473 1044l66 418h325l-145 -418h-246z" />
<glyph unicode="#" horiz-adv-x="1660" d="M123 469v125h172l57 293h-229v123h254l33 174q16 86 82.5 140t154.5 54h213l-72 -368h170l33 174q16 86 83 140t155 54h213l-72 -368h168v-123h-192l-56 -293h248v-125h-272l-33 -166q-16 -88 -83 -142.5t-155 -54.5h-213l70 363h-168l-33 -166q-16 -88 -82.5 -142.5 t-154.5 -54.5h-213l69 363h-147zM709 594h168l57 293h-170z" />
<glyph unicode="$" horiz-adv-x="1490" d="M123 1505h258q68 0 122 -31.5t89 -91.5l153 -276l154 276q35 59 89 91t122 32h258l-436 -778h373v-111h-375v-643h-127q-49 0 -93 18.5t-77 51.5t-52.5 77t-19.5 93v403h-375v111h373z" />
<glyph unicode="%" horiz-adv-x="1927" d="M123 920v499h606q68 0 116 -48t48 -116v-395l291 449q35 53 87 81.5t115 28.5h205l-491 -757h538q68 0 117 -48.5t49 -117.5v-498h-606q-68 0 -116 48t-48 116v395l-291 -451q-74 -109 -202 -108h-205l489 758h-536q-70 0 -118 48t-48 116zM432 961q0 -35 24.5 -58.5 t59.5 -23.5h68v333q0 35 -23.5 59.5t-58.5 24.5h-70v-335zM1343 203q0 -35 24 -58.5t58 -23.5h68v334q0 35 -23.5 58.5t-58.5 23.5h-68v-334z" />
<glyph unicode="&#x26;" horiz-adv-x="1863" d="M123 229v365l332 229l-21 15q-27 20 -55.5 36.5t-53 34t-40 39t-15.5 56.5v499h332h272q68 0 117 -48t49 -118v-395l-182 -131l334 -254h324l-162 -125l213 -162q20 -16 36.5 -29.5t35 -22.5t42 -12t60.5 -1l-39 -90h-338l-211 164l-397 -304q-41 -31 -89.5 -32.5 t-91.5 22.5zM340 438l281 -172q49 -29 92 4l223 179l-281 217zM580 1044q0 -33 25.5 -47t51.5 -32l72 49v282q0 35 -23.5 58.5t-58.5 23.5h-45h-22v-334z" />
<glyph unicode="'" horiz-adv-x="561" d="M123 1057l47 416h268l-137 -416h-178z" />
<glyph unicode="(" horiz-adv-x="741" d="M123 713q0 215 83 431t249 441l163 -90q-268 -399 -268 -783t268 -784l-163 -88q-166 223 -249 440.5t-83 432.5z" />
<glyph unicode=")" horiz-adv-x="739" d="M123 -72q266 399 266 783.5t-266 783.5l162 90q166 -225 248.5 -441t82.5 -431t-82.5 -432.5t-248.5 -440.5z" />
<glyph unicode="*" horiz-adv-x="956" d="M123 721l80 240l168 -74l-17 182h252l-18 -184l168 71l78 -239l-181 -39l121 -137l-205 -150l-94 162l-92 -158l-205 148l125 139z" />
<glyph unicode="+" horiz-adv-x="1284" d="M123 670v125h311v389h414v-389h313v-125h-313v-389h-414v389h-311z" />
<glyph unicode="," horiz-adv-x="561" d="M123 -45l47 467h268l-137 -467h-178z" />
<glyph unicode="-" horiz-adv-x="966" d="M123 674v123h721v-123h-721z" />
<glyph unicode="." horiz-adv-x="610" d="M123 18v267h305q25 0 42 -17.5t17 -42.5v-264h-305q-25 0 -42 17.5t-17 39.5z" />
<glyph unicode="/" horiz-adv-x="1499" d="M123 -98l919 1611h334l-917 -1611h-336z" />
<glyph unicode="0" horiz-adv-x="1216" d="M123 135v1350h827q59 0 101.5 -43t42.5 -103v-1347h-826q-59 0 -102 42t-43 101zM485 172q0 -31 21.5 -52.5t50.5 -21.5h176v1205q0 31 -21.5 52t-52.5 21h-174v-1204z" />
<glyph unicode="1" horiz-adv-x="894" d="M123 1147v186l649 170v-1515h-117q-49 0 -93 18.5t-76.5 51t-52 76.5t-19.5 93v979z" />
<glyph unicode="2" horiz-adv-x="1210" d="M123 135v690h592v482q0 29 -21.5 50t-50.5 21h-520v107h805q59 0 100 -41t41 -101v-626h-590v-547q0 -29 20.5 -50.5t51.5 -21.5h536v-104h-823q-59 0 -100 41t-41 100z" />
<glyph unicode="3" horiz-adv-x="1202" d="M123 -12v104h596v586h-596v106h596v514q0 29 -20.5 50.5t-51.5 21.5h-524v109h813q59 0 101 -42t42 -102v-1347h-956z" />
<glyph unicode="4" horiz-adv-x="1382" d="M135 575l180 920h357l-172 -883q-6 -31 11 -51t46 -20h164v956h358v-956h181v-109h-181v-452h-116q-49 0 -93.5 18t-77 51t-52 77t-19.5 93v213h-471q-59 0 -93 42t-22 101z" />
<glyph unicode="5" horiz-adv-x="1193" d="M123 -12v104h592v619h-449q-59 0 -101 42t-42 101v625h948v-107h-592v-483q0 -29 21.5 -49.5t50.5 -20.5h520v-831h-948z" />
<glyph unicode="6" horiz-adv-x="1216" d="M123 135v1350h825q59 0 102.5 -43t43.5 -103v-305h-363v269q0 31 -20.5 52t-51.5 21h-176v-590h465q59 0 102.5 -43t43.5 -102v-649h-828q-59 0 -101 42t-42 101zM483 172q0 -31 21.5 -52.5t52.5 -21.5h174v506q0 31 -20.5 52.5t-51.5 21.5h-176v-506z" />
<glyph unicode="7" horiz-adv-x="1210" d="M123 1384v107h846q59 0 88.5 -42t13.5 -101l-328 -1196q-23 -82 -86 -129.5t-147 -47.5h-172l367 1338q8 29 -7.5 50t-44.5 21h-530z" />
<glyph unicode="8" horiz-adv-x="1200" d="M123 137v1352h811q59 0 101 -42t42 -101v-1350h-811q-59 0 -101 41t-42 100zM479 172q0 -29 20.5 -50.5t49.5 -21.5h174v512q0 29 -21.5 50.5t-50.5 21.5h-172v-512zM479 862q0 -29 20.5 -50t49.5 -21h174v520q0 29 -21.5 50t-50.5 21h-172v-520z" />
<glyph unicode="9" horiz-adv-x="1210" d="M123 135v359h360v-322q0 -31 21.5 -52.5t52.5 -21.5h168v537h-459q-59 0 -101 43t-42 102v705h819q59 0 102 -43t43 -103v-1347h-821q-59 0 -101 42t-42 101zM483 815q0 -29 21.5 -50.5t52.5 -21.5h168v560q0 31 -20.5 52t-51.5 21h-170v-561z" />
<glyph unicode=":" horiz-adv-x="544" d="M123 166v221h252q20 0 33.5 -14.5t13.5 -34.5v-219h-252q-20 0 -33.5 13t-13.5 34zM123 743v220h252q20 0 33.5 -14.5t13.5 -35.5v-219h-252q-20 0 -33.5 13.5t-13.5 35.5z" />
<glyph unicode=";" horiz-adv-x="563" d="M123 -35l47 467h268l-137 -467h-178zM152 743v220h239q23 0 36 -14.5t13 -35.5v-219h-239q-20 0 -34.5 13.5t-14.5 35.5z" />
<glyph unicode="&#x3c;" horiz-adv-x="1499" d="M123 618v238l1253 391v-256l-876 -254l876 -254v-256z" />
<glyph unicode="=" horiz-adv-x="1351" d="M123 461v125h1106v-125h-1106zM123 893v123h1106v-123h-1106z" />
<glyph unicode="&#x3e;" horiz-adv-x="1499" d="M123 227v256l876 254l-876 254v256l1253 -391v-238z" />
<glyph unicode="?" horiz-adv-x="1202" d="M123 1030v412h801q35 0 66.5 -17.5t53 -44t28.5 -59.5t-7 -66l-301 -651v-233h-332v293l266 575q8 16 5 32.5t-14 31t-26.5 22.5t-33.5 8h-205v-303h-301zM414 129q0 74 52 127t128 53t128 -53t52 -127q0 -76 -52 -128t-128 -52t-128 52t-52 128z" />
<glyph unicode="@" horiz-adv-x="1714" d="M123 147v1342h1309q66 0 112.5 -47t46.5 -113v-1124h-895q-66 0 -112.5 47t-46.5 113v901h479q66 0 113 -46t47 -112v-784h57v966q0 35 -22.5 57.5t-57.5 22.5h-674v-1184q0 -35 21.5 -56t56.5 -21h1034v-119h-1310q-66 0 -112 46t-46 111zM813 403q0 -35 22.5 -57 t57.5 -22h4v743q0 35 -21.5 57.5t-56.5 22.5h-6v-744z" />
<glyph unicode="A" horiz-adv-x="1529" d="M123 -20l377 1517h530l377 -1517h-168q-86 0 -150.5 50t-84.5 134l-82 346h-314l-82 -346q-20 -84 -84.5 -134t-150.5 -50h-168zM635 618h260l-129 549z" />
<glyph unicode="B" horiz-adv-x="1366" d="M123 127v1374h977q59 0 101 -42t42 -101v-424q0 -57 -41 -103l-90 -90l90 -90q41 -41 41 -102v-565h-975q-59 0 -102 42t-43 101zM483 164q0 -31 21.5 -52.5t52.5 -21.5h326v520q0 29 -21.5 50.5t-50.5 21.5h-328v-518zM483 864q0 -31 21.5 -51t52.5 -20h326v104v424 q0 29 -21.5 50.5t-50.5 21.5h-328v-529z" />
<glyph unicode="C" horiz-adv-x="1370" d="M123 127v1225q0 61 43 104t104 43h977v-110h-684q-29 0 -50 -21.5t-21 -52.5v-1151q0 -31 21.5 -52.5t49.5 -21.5h684v-108h-977q-61 0 -104 42t-43 103z" />
<glyph unicode="D" horiz-adv-x="1378" d="M123 -20v1515h971q66 0 113.5 -47t47.5 -115v-1196q0 -66 -48 -111.5t-113 -45.5h-971zM489 86h345q23 0 38 16.5t15 38.5v1190q0 23 -15.5 38t-37.5 15h-345v-1298z" />
<glyph unicode="E" horiz-adv-x="1368" d="M123 127v1372h1122v-110h-753v-545h743v-111h-743v-569q0 -31 21.5 -52.5t51.5 -21.5h680v-108h-975q-59 0 -103 43t-44 102z" />
<glyph unicode="F" horiz-adv-x="1374" d="M123 223v1276h1128v-108h-762v-547h738v-111h-738v-751h-124q-49 0 -93.5 18t-77 51t-52 77t-19.5 95z" />
<glyph unicode="G" horiz-adv-x="1374" d="M123 141v1196q0 66 48 114t114 48h960v-110h-700q-23 0 -38 -15.5t-15 -38.5v-1192q0 -23 15 -38t38 -15h338v598q0 31 -21.5 52.5t-52.5 21.5h-98v110h393q59 0 103 -43t44 -104v-635v-108h-966q-66 0 -114 47t-48 112z" />
<glyph unicode="H" horiz-adv-x="1386" d="M123 225v1278h356v-682h426v682h357v-1517h-115q-49 0 -93 18.5t-77 51t-52.5 76.5t-19.5 93v490h-426v-729h-114q-49 0 -93.5 18.5t-77 51t-52 76.5t-19.5 93z" />
<glyph unicode="I" horiz-adv-x="882" d="M123 -18v106h135v1301h-135v108h637v-108h-137v-1301h137v-106h-637z" />
<glyph unicode="J" horiz-adv-x="909" d="M123 -20v114h92q49 0 85 36t36 85v1280h358v-1276q0 -49 -19.5 -93t-52 -77t-76.5 -51t-93 -18h-330z" />
<glyph unicode="K" horiz-adv-x="1409" d="M123 225v1278h358v-614l432 588h367l-539 -742l545 -749h-244q-125 0 -194 98l-367 500v-598h-116q-49 0 -93.5 18.5t-77 51t-52 76.5t-19.5 93z" />
<glyph unicode="L" horiz-adv-x="1222" d="M123 125v1376h358v-1339q0 -29 21.5 -50.5t50.5 -21.5h547v-106h-834q-59 0 -101 41t-42 100z" />
<glyph unicode="M" horiz-adv-x="1861" d="M123 225v1276h524l287 -565l280 565h525v-1517h-117q-49 0 -93 19.5t-77 52t-52.5 76.5t-19.5 93v830l-268 -529h-211q-70 0 -126 34t-89 97l-207 398v-1071h-114q-49 0 -93.5 19.5t-77 52t-52 76.5t-19.5 93z" />
<glyph unicode="N" horiz-adv-x="1474" d="M123 225v1276h477l404 -1159v1159h106q49 0 93 -19.5t77 -52t52.5 -76.5t19.5 -93v-1276h-473l-410 1155v-1155h-104q-49 0 -93.5 19.5t-77 52t-52 76.5t-19.5 93z" />
<glyph unicode="O" horiz-adv-x="1376" d="M123 145v1196q0 66 48 114t114 48h807q68 0 114.5 -48t46.5 -114v-1196q0 -66 -47 -112.5t-114 -46.5h-807q-66 0 -114 47t-48 112zM492 147q0 -23 15 -38t38 -15h286q23 0 39.5 15.5t16.5 37.5v1192q0 23 -16.5 38.5t-39.5 15.5h-286q-23 0 -38 -15.5t-15 -38.5v-1192z " />
<glyph unicode="P" horiz-adv-x="1366" d="M123 227v1276h958q68 0 115 -48t47 -114v-677q0 -68 -47 -116t-115 -48h-585v-514h-131q-49 0 -93.5 19.5t-77 52t-52 76.5t-19.5 93zM496 612h323q23 0 38 15.5t15 38.5v671q0 23 -15 39.5t-38 16.5h-323v-781z" />
<glyph unicode="Q" horiz-adv-x="1433" d="M123 201v1134q0 66 46 112t112 46h817q66 0 111.5 -46t45.5 -112v-1134q0 -66 -46 -112t-111 -46h-142l15 -39h262v-119h-406l-61 158h-485q-66 0 -112 46t-46 112zM481 203q0 -23 14.5 -37t36.5 -14h193l-123 315h199l96 -264v1130q0 23 -14.5 37t-36.5 14h-314 q-23 0 -37 -14t-14 -37v-1130z" />
<glyph unicode="R" horiz-adv-x="1380" d="M123 1503h971q66 0 113.5 -48t47.5 -114v-450q0 -49 -27.5 -89t-72.5 -59q45 -18 73.5 -58t28.5 -91v-160v-448h-124q-51 0 -95.5 18.5t-77 51t-52 76.5t-19.5 93v414q0 23 -15.5 39t-37.5 16h-344v-708h-125q-49 0 -93.5 18.5t-77 51t-52 76.5t-19.5 93zM492 805h342 q23 0 38 15.5t15 37.5v481q0 23 -15.5 38.5t-37.5 15.5h-342v-588z" />
<glyph unicode="S" horiz-adv-x="1361" d="M123 -18v106h682q31 0 52.5 21.5t21.5 50.5v485q0 29 -21.5 50.5t-52.5 21.5h-537q-59 0 -102 43t-43 102v492q0 59 43 101t102 42h971v-108h-682q-29 0 -50.5 -21.5t-21.5 -50.5v-418q0 -31 21.5 -52.5t50.5 -21.5h539q59 0 101 -42t42 -101v-559q0 -59 -42 -100 t-101 -41h-973z" />
<glyph unicode="T" horiz-adv-x="1372" d="M123 1391v108h1126v-108h-383v-1407h-118q-49 0 -93.5 18t-77 51t-52 77t-19.5 93v1168h-383z" />
<glyph unicode="U" horiz-adv-x="1376" d="M123 129v1374h362v-1339q0 -29 21.5 -50.5t50.5 -21.5h334v1411h362v-1517h-987q-59 0 -101 42t-42 101z" />
<glyph unicode="V" horiz-adv-x="1529" d="M123 1497h358l285 -1192l283 1192h358l-360 -1517h-371q-86 0 -150.5 50t-85.5 134z" />
<glyph unicode="W" horiz-adv-x="1892" d="M123 1499h358l127 -1042l160 485h356l181 -485l110 1042h354l-174 -1517h-272q-78 0 -138.5 40.5t-88.5 112.5l-150 397l-182 -550h-248q-47 0 -88 15t-72.5 44t-52 66.5t-27.5 85.5z" />
<glyph unicode="X" horiz-adv-x="1509" d="M123 -18l424 757l-424 760h416l217 -389l215 389h415l-423 -760l423 -757h-272q-68 0 -123 30.5t-88 89.5l-147 265l-148 -265q-35 -59 -90 -89.5t-123 -30.5h-272z" />
<glyph unicode="Y" horiz-adv-x="1456" d="M123 1497h387l217 -387l217 387h389l-426 -758v-757h-116q-49 0 -93.5 18t-77 51t-52 77t-19.5 93v518z" />
<glyph unicode="Z" horiz-adv-x="1406" d="M141 82l672 1255q10 16 0 35q-12 16 -31 17h-630v108h1052q39 0 60 -33q11 -19 11 -38q0 -16 -9 -31l-672 -1256q-10 -18 0 -35q10 -16 31 -16h630v-106h-1052q-41 0 -60 30q-11 18 -11 37q0 16 9 33z" />
<glyph unicode="[" horiz-adv-x="874" d="M123 14v1536h629v-123h-217v-1372q0 -35 24.5 -58.5t58.5 -23.5h134v-123h-465q-68 0 -116 48.5t-48 115.5z" />
<glyph unicode="\" horiz-adv-x="1093" d="M123 1597h225l623 -1747h-228z" />
<glyph unicode="]" horiz-adv-x="876" d="M123 -27h217v1373q0 35 -23.5 58t-58.5 23h-135v123h465q68 0 117 -48t49 -116v-1536h-631v123z" />
<glyph unicode="^" horiz-adv-x="1118" d="M123 885v293l436 311l436 -311v-293l-436 311z" />
<glyph unicode="_" horiz-adv-x="1466" d="M123 4v125h1220v-125h-1220z" />
<glyph unicode="`" horiz-adv-x="636" d="M123 1516h328l63 -418h-246z" />
<glyph unicode="a" horiz-adv-x="1406" d="M123 150v692q0 76 53 129t129 53h746q76 0 129 -53t53 -129v-688q0 -25 17.5 -43.5t43.5 -18.5h86v-121h-147q-57 0 -108.5 14.5t-98.5 39.5q-47 -25 -98 -39.5t-109 -14.5h-514q-76 0 -129 52.5t-53 126.5zM537 154q0 -25 17 -43.5t42 -18.5h164q25 0 42 18.5t17 43.5 v686q0 25 -17.5 42t-41.5 17h-164q-25 0 -42 -17.5t-17 -41.5v-686z" />
<glyph unicode="b" horiz-adv-x="1396" d="M123 156v1353h414v-487h555q76 0 129 -53.5t53 -128.5v-684q0 -74 -53.5 -126.5t-128.5 -52.5h-789q-74 0 -127 52.5t-53 126.5zM537 160q0 -25 17 -43.5t42 -18.5h205q25 0 42 18.5t17 43.5v678q0 25 -17.5 42t-41.5 17h-264v-737z" />
<glyph unicode="c" horiz-adv-x="1349" d="M123 156v688q0 76 53 128t129 52h922v-123h-631q-25 0 -42 -17.5t-17 -43.5v-680q0 -25 17 -43.5t42 -18.5h631v-121h-922q-76 0 -129 52.5t-53 126.5z" />
<glyph unicode="d" horiz-adv-x="1396" d="M123 156v682q0 76 53 129t129 53h555v489h414v-1353q0 -74 -53.5 -126.5t-128.5 -52.5h-787q-76 0 -129 52.5t-53 126.5zM537 160q0 -25 17 -43.5t42 -18.5h203q27 0 44 18.5t17 43.5v735h-264q-25 0 -42 -17.5t-17 -41.5v-676z" />
<glyph unicode="e" horiz-adv-x="1392" d="M123 156v690q0 76 53 128t129 52h778q76 0 129.5 -52t53.5 -128v-295q0 -76 -53.5 -129t-129.5 -53h-546v-209q0 -25 17 -43.5t42 -18.5h111h563v-121h-733h-232q-76 0 -129 52.5t-53 126.5zM537 494h233h23q25 0 42 17t17 42v289q0 27 -17.5 44t-41.5 17h-197 q-25 0 -42 -17.5t-17 -43.5v-348z" />
<glyph unicode="f" horiz-adv-x="1056" d="M57 924v125h258v292q0 68 48.5 117t117.5 49h496v-125h-166q-35 0 -58.5 -23.5t-23.5 -58.5v-251h244v-125h-244v-947h-172q-49 0 -93 18.5t-77 51.5t-52.5 77t-19.5 93v707h-258z" />
<glyph unicode="g" horiz-adv-x="1386" d="M123 266v576q0 39 14.5 70.5t39 57t58 39t70.5 13.5h774q37 0 71 -13.5t58.5 -39t39 -57t14.5 -70.5v-1059q0 -76 -53.5 -129t-129.5 -53h-899v123h608q27 0 43.5 18t16.5 43v299h-543q-76 0 -129 53t-53 129zM535 270q0 -27 18 -43t43 -16h192q27 0 43.5 16.5t16.5 42.5 v564q0 27 -16.5 44t-43.5 17h-192q-25 0 -43 -17.5t-18 -43.5v-564z" />
<glyph unicode="h" horiz-adv-x="1388" d="M123 221v1299h414v-465h546q76 0 129.5 -53.5t53.5 -129.5v-890h-172q-49 0 -93.5 18t-77 51t-52 77t-19.5 93v649q0 25 -17.5 42.5t-41.5 17.5h-256v-948h-172q-49 0 -93.5 18t-77 51t-52 77t-19.5 93z" />
<glyph unicode="i" horiz-adv-x="634" d="M123 1315q0 39 15.5 74.5t42 62.5t61 42t75.5 15t77 -15t61.5 -42t41 -62.5t15.5 -74.5q0 -82 -56.5 -138.5t-138.5 -56.5q-41 0 -75.5 15.5t-61 41t-42 61.5t-15.5 77zM133 221v801h371v-1040h-129q-49 0 -93 18t-77 51t-52.5 77t-19.5 93z" />
<glyph unicode="j" horiz-adv-x="677" d="M-123 -268h74q49 4 85 37.5t36 85.5v1163h399v-1178q0 -49 -19.5 -93t-51 -76.5t-76.5 -52t-95 -19.5h-352v133zM78 1305q0 41 15.5 77.5t42 64.5t63.5 42t77 14q41 0 77 -14t63.5 -42t42 -64.5t14.5 -77.5q0 -82 -57.5 -139.5t-139.5 -57.5q-41 0 -77.5 15.5t-63 42 t-42 62.5t-15.5 77z" />
<glyph unicode="k" horiz-adv-x="1437" d="M123 219v1290h412v-893l339 406h435l-469 -520l475 -520h-328q-115 0 -184 86l-268 319v-407h-170q-49 0 -93.5 18t-77 51t-52 77t-19.5 93z" />
<glyph unicode="l" horiz-adv-x="657" d="M123 219v1294h412v-1533h-170q-49 0 -93.5 18t-77 51t-52 77t-19.5 93z" />
<glyph unicode="m" horiz-adv-x="1886" d="M123 225v842h412v-66h256q51 0 96 -16t86 -55q37 37 86 54t106 17h416q37 0 71 -14t58.5 -38.5t38.5 -57.5t14 -70v-835h-133q-49 0 -94 18.5t-78 51t-52.5 76.5t-19.5 93v592q0 25 -17 43.5t-42 18.5h-98q-25 0 -42.5 -18.5t-17.5 -43.5v-831h-170q-49 0 -93 18.5 t-76.5 51t-52 76.5t-19.5 93v592q0 25 -18.5 43.5t-43.5 18.5h-100q-25 0 -43 -18.5t-18 -43.5v-831h-170q-49 0 -93.5 18.5t-77 51t-52 76.5t-19.5 93z" />
<glyph unicode="n" horiz-adv-x="1382" d="M123 219v860h414v-78h540q37 0 71 -14t58.5 -38.5t39 -57.5t14.5 -70v-841h-173q-49 0 -93 18t-76.5 51t-52 77t-19.5 93v598q0 25 -17.5 43.5t-42.5 18.5h-249v-899h-172q-49 0 -93.5 18t-77 51t-52 77t-19.5 93z" />
<glyph unicode="o" horiz-adv-x="1370" d="M123 158v684q0 37 14.5 69.5t39 57t57 39t69.5 14.5h762q37 0 70.5 -14.5t58.5 -39t39 -57t14 -69.5v-684q0 -74 -53 -126t-129 -52h-762q-74 0 -127 52t-53 126zM535 162q0 -27 18 -44.5t43 -17.5h178q25 0 42.5 17.5t17.5 44.5v676q0 25 -17.5 43t-42.5 18h-178 q-25 0 -43 -18.5t-18 -42.5v-676z" />
<glyph unicode="p" horiz-adv-x="1390" d="M123 -154v1225h964q74 0 127.5 -53t53.5 -127v-604q0 -76 -53.5 -129.5t-127.5 -53.5h-550v-499h-172q-49 0 -93.5 19.5t-77 52t-52 76.5t-19.5 93zM537 227h256q27 0 44 18.5t17 43.5v598q0 25 -17.5 42t-43.5 17h-256v-719z" />
<glyph unicode="q" horiz-adv-x="1400" d="M123 293v598q0 74 53 127t127 53h795q39 0 71.5 -14.5t58 -39t39 -57t13.5 -69.5v-1286h-414v506h-563q-35 0 -68.5 14t-58 38.5t-39 57.5t-14.5 72zM537 295q0 -25 17 -43.5t44 -18.5h268v654q0 25 -18.5 42t-40.5 17h-209q-27 0 -44 -17.5t-17 -41.5v-592z" />
<glyph unicode="r" horiz-adv-x="1171" d="M123 205v866h414v-186q55 53 128.5 84.5t159.5 31.5h224v-268h-349q-66 0 -114.5 -34.5t-48.5 -118.5v-615h-172q-49 0 -93.5 18.5t-77 51.5t-52 77t-19.5 93z" />
<glyph unicode="s" horiz-adv-x="1343" d="M123 -23v121h602q35 0 59.5 24.5t24.5 59.5v172q0 35 -24.5 58.5t-59.5 23.5h-436q-70 0 -118 48t-48 118v248q0 70 48 118t118 48h932v-123h-603q-35 0 -58 -24.5t-23 -59.5v-166q0 -35 23.5 -58.5t57.5 -23.5h439q68 0 116 -49t48 -117v-254q0 -70 -48.5 -117 t-115.5 -47h-934z" />
<glyph unicode="t" horiz-adv-x="1171" d="M123 879v122h264v441h412v-441h239v-122h-239v-699q0 -35 24.5 -58.5t59.5 -23.5h166v-123h-498q-68 0 -116 47.5t-48 116.5v740h-264z" />
<glyph unicode="u" horiz-adv-x="1503" d="M123 162v858h414v-856q0 -25 17 -42.5t42 -17.5h162q25 0 43 17.5t18 42.5v856h412l2 -856q0 -25 17.5 -42.5t41.5 -17.5h88v-122h-147q-119 0 -207 55q-92 -55 -207 -55h-514q-76 0 -129 52t-53 128z" />
<glyph unicode="v" horiz-adv-x="1454" d="M123 1030h414l190 -760l191 760h413l-280 -1055h-461q-84 0 -147.5 48.5t-86.5 128.5z" />
<glyph unicode="w" horiz-adv-x="1873" d="M123 1030h342l133 -778l158 760h368l158 -760l127 778h342l-203 -1055h-280q-88 0 -154.5 52.5t-83.5 138.5l-90 446l-129 -637h-281q-88 0 -154.5 53.5t-82.5 139.5z" />
<glyph unicode="x" horiz-adv-x="1413" d="M123 -25l371 527l-371 528h424l160 -225l159 225h424l-370 -528l370 -527h-299q-61 0 -112.5 25t-85.5 76l-86 123l-86 -123q-35 -51 -86.5 -76t-112.5 -25h-299z" />
<glyph unicode="y" horiz-adv-x="1466" d="M123 1018h403l199 -535l213 535h403l-505 -1260q-27 -72 -87.5 -112.5t-136.5 -40.5h-241l196 485h-104z" />
<glyph unicode="z" horiz-adv-x="1406" d="M140 22q-6 14 -6 29q0 27 20 55l608 732q14 16 6 37.5t-31 21.5h-579v123h1059q20 0 37.5 -12.5t26.5 -29.5t8 -37.5t-15 -37.5l-617 -743q-16 -16 -8 -37t31 -21h592v-122h-1059q-57 0 -73 42z" />
<glyph unicode="{" horiz-adv-x="978" d="M123 670v125h37q51 0 87 36.5t36 88.5v497q0 37 14 70t38.5 57.5t58.5 38.5t71 14h391v-122h-100q-25 0 -42.5 -18.5t-17.5 -43.5v-330v-262q0 -55 -28.5 -71.5t-57.5 -16.5q29 0 57.5 -17.5t28.5 -72.5v-262v-330q0 -25 17.5 -42t42.5 -17h100v-123h-391q-37 0 -71 14.5 t-58.5 39t-38.5 57t-14 69.5v496q0 53 -36 89t-87 36h-37z" />
<glyph unicode="|" horiz-adv-x="618" d="M123 98v1512h373v-1753h-131q-49 0 -93.5 19.5t-77 52t-52 76.5t-19.5 93z" />
<glyph unicode="}" horiz-adv-x="978" d="M123 -8h98q27 0 44.5 17.5t17.5 41.5v330v262q0 55 28.5 72.5t55.5 17.5q-27 0 -55.5 16.5t-28.5 71.5v262v330q0 25 -17.5 43.5t-44.5 18.5h-98v122h391q37 0 70.5 -14t58.5 -38.5t39 -57.5t14 -70v-497q0 -51 36 -88t87 -37h37v-125h-37q-51 0 -87 -36t-36 -89v-496 q0 -37 -14 -69.5t-39 -57t-58.5 -39t-70.5 -14.5h-391v123z" />
<glyph unicode="~" horiz-adv-x="1357" d="M123 502v293q49 33 105.5 74.5t114.5 70.5t117.5 32t117.5 -40l206 -156q57 -43 115.5 -40t116 31t113 69t106.5 75v-290q-51 -35 -106.5 -76t-113 -68.5t-115.5 -31t-116 39.5l-206 156q-57 43 -117 40t-118 -31.5t-114.5 -71.5t-105.5 -76z" />
<glyph unicode="&#xa4;" d="M264 141l209 207q-57 84 -88 180.5t-31 202.5q0 109 31 205t88 180l-209 207l172 172l209 -205q84 59 182.5 91t208.5 32q111 0 209 -31.5t182 -91.5l209 205l172 -172l-209 -207q57 -84 88 -180t31 -205q0 -106 -30.5 -202.5t-88.5 -180.5l209 -207l-172 -170l-209 203 q-84 -59 -182 -91t-209 -32t-209 32t-182 91l-209 -203zM532 731q0 -104 40 -195.5t108 -159t160 -107.5t196 -40t196.5 40t160 107.5t107.5 159t40 195.5t-40 196.5t-107.5 160t-159.5 107.5t-197 40q-104 0 -196 -40t-160 -107.5t-108 -159.5t-40 -197z" />
<glyph unicode="&#xa7;" d="M598 156v41h258v-148q0 -29 20.5 -48t49.5 -19h26q29 0 49.5 19t20.5 48v127q0 25 -13.5 46.5t-34 39t-46 26.5t-49.5 9h-76q-86 0 -145.5 59.5t-59.5 145.5v182q0 55 21.5 105.5t58.5 88t87 59t107 21.5h154q2 0 4 -1t6 -1q-10 41 -52 69t-87 28h-76q-86 0 -145.5 59 t-59.5 145v70q0 57 21.5 107.5t58.5 87.5t87.5 58.5t107.5 21.5h176q55 0 105.5 -21.5t88 -58.5t59 -87.5t21.5 -107.5v-41h-260v148q0 29 -19.5 48t-47.5 19h-29q-29 0 -48 -19.5t-19 -47.5v-127q0 -49 34.5 -85t83.5 -36h99q43 0 79.5 -16.5t65.5 -44t45 -64.5t16 -80 v-205q0 -55 -21.5 -105t-59 -88t-88 -59.5t-105.5 -21.5h-154h-6q14 -31 44 -51.5t67 -20.5h98q43 0 80 -16.5t64.5 -44t44 -65.5t16.5 -81v-67q0 -57 -21.5 -106.5t-58.5 -86.5t-87 -58.5t-105 -21.5h-177q-57 0 -107 21.5t-87 58.5t-58.5 86t-21.5 107zM897 668 q0 -29 20.5 -47.5t49.5 -18.5h4q29 0 49 19.5t20 48.5v123q0 27 -20.5 46t-48.5 19h-4q-29 0 -49.5 -19.5t-20.5 -47.5v-123z" />
<glyph unicode="&#xa8;" d="M752 1282v156h180q14 0 24.5 -9.5t10.5 -25.5v-156h-181q-14 0 -24 9.5t-10 25.5zM1102 1282v156h180q14 0 24.5 -9.5t10.5 -25.5v-156h-180q-14 0 -24.5 9.5t-10.5 25.5z" />
<glyph unicode="&#xad;" horiz-adv-x="966" d="M123 674v123h721v-123h-721z" />
<glyph unicode="&#xb0;" d="M117 1208q0 59 22.5 112.5t61.5 92.5t92 61.5t113 22.5q59 0 112 -22.5t92 -61.5t61.5 -92t22.5 -113q0 -59 -22.5 -112.5t-61.5 -93t-92 -62t-112 -22.5t-112.5 22.5t-92.5 62t-61.5 93t-22.5 112.5zM287 1208q0 -49 34.5 -83.5t84.5 -34.5q49 0 83.5 34.5t34.5 83.5 t-34.5 84t-83.5 35t-84 -35t-35 -84z" />
<glyph unicode="&#xb1;" d="M518 158v123h1038v-123h-1038zM518 795v125h313v389h412v-389h313v-125h-313v-389h-412v389h-313z" />
<glyph unicode="&#xb7;" d="M831 571q0 -20 15 -36q16 -14 37 -15h334v330q0 20 -15 37q-16 14 -37 14h-334v-330z" />
<glyph unicode="&#xd7;" d="M557 317l317 420l-317 422h311l162 -215l162 215h311l-317 -422l317 -420h-311l-162 215l-162 -215h-311z" />
<glyph unicode="&#xe0;" d="M418 14v809q0 37 14 71t39 58.5t57.5 39t69.5 14.5h748q37 0 69.5 -14.5t57 -39t39 -58.5t14.5 -71l2 -807q0 -23 17.5 -40t41.5 -17h88v-125h-147q-57 0 -109.5 14.5t-99.5 40.5q-45 -27 -97.5 -41t-107.5 -14h-516q-37 0 -69.5 14.5t-57.5 39t-39 57t-14 69.5z M537 1587h409l293 -450h-410zM829 16q0 -23 18.5 -40t43.5 -17h162q25 0 43 17.5t18 39.5v805q0 25 -18.5 42.5t-42.5 17.5h-162q-25 0 -43.5 -17.5t-18.5 -42.5v-805z" />
<glyph unicode="&#xe1;" d="M424 14v809q0 76 53 129.5t129 53.5h746q76 0 128 -53.5t52 -129.5l2 -807q0 -23 17.5 -40t41.5 -17h88v-125h-147q-57 0 -108.5 14.5t-98.5 40.5q-47 -27 -98 -41t-109 -14h-514q-37 0 -70.5 14.5t-58 39t-39 57t-14.5 69.5zM715 1137l293 450h409l-295 -450h-407z M838 16q0 -23 17 -40t42 -17h162q27 0 44 17.5t17 39.5v805q0 25 -17.5 42.5t-43.5 17.5h-162q-25 0 -42 -17.5t-17 -42.5v-805z" />
<glyph unicode="&#xe8;" d="M461 23v804q0 37 14 70t39 57.5t58.5 39t70.5 14.5h791q37 0 70.5 -14.5t58 -39t39 -57.5t14.5 -70v-301q0 -76 -53.5 -129t-128.5 -53h-560v-317q0 -25 17.5 -42.5t42.5 -17.5h104h578v-123h-742h-231q-76 0 -129 52.5t-53 126.5zM631 1591h409l295 -450h-409zM874 469 h246h23q25 0 42 17.5t17 41.5v295q0 27 -17.5 44.5t-41.5 17.5h-209q-25 0 -42.5 -17.5t-17.5 -44.5v-354z" />
<glyph unicode="&#xe9;" d="M483 35v805q0 37 14.5 69.5t39 57t58.5 39t71 14.5h790q37 0 71 -14.5t58.5 -39t38.5 -57t14 -69.5v-301q0 -76 -53 -129.5t-129 -53.5h-559v-319q0 -25 17.5 -41t41.5 -16h105h577v-125h-741h-231q-37 0 -71 14t-58.5 38.5t-39 57.5t-14.5 70zM788 1153l293 449h410 l-295 -449h-408zM897 481h246h22q25 0 42.5 17.5t17.5 42.5v295q0 25 -17.5 43t-42.5 18h-209q-25 0 -42 -18.5t-17 -42.5v-355z" />
<glyph unicode="&#xea;" d="M485 80v756q0 37 14.5 70.5t39 58t57.5 39t70 14.5h792q37 0 70 -14.5t57.5 -39t38.5 -58.5t14 -70v-301q0 -37 -14 -70t-38.5 -57.5t-57.5 -39t-70 -14.5h-561v-270q0 -27 18.5 -44t42.5 -17h105h541v-121h-707h-231q-37 0 -70 14t-57.5 39t-39 56.5t-14.5 68.5z M494 1085l321 439h488l321 -439h-418l-147 201l-148 -201h-417zM897 477h246h22q25 0 43.5 18.5t18.5 43.5v295q0 25 -18.5 42t-43.5 17h-207q-25 0 -43 -17.5t-18 -41.5v-357z" />
<glyph unicode="&#xec;" d="M641 1606h387l293 -451h-387zM928 113v897h393v-1137h-152q-49 0 -93 19.5t-76.5 51t-52 75.5t-19.5 94z" />
<glyph unicode="&#xed;" d="M735 113v897h393v-1137h-151q-49 0 -93 19.5t-77 51t-52.5 75.5t-19.5 94zM735 1155l293 451h389l-295 -451h-387z" />
<glyph unicode="&#xf2;" d="M498 35v809q0 76 53 128t129 52h756q76 0 129 -52t53 -128v-809q0 -37 -14.5 -70t-39 -57.5t-58 -38.5t-70.5 -14h-756q-37 0 -71 14t-58.5 38.5t-38.5 57.5t-14 70zM590 1606h409l293 -451h-409zM911 37q0 -25 17.5 -42.5t42.5 -17.5h174q25 0 42 17.5t17 42.5v803 q0 27 -17.5 44t-41.5 17h-174q-25 0 -42.5 -17.5t-17.5 -43.5v-803z" />
<glyph unicode="&#xf3;" d="M479 35v809q0 76 53.5 128t129.5 52h755q76 0 128 -52t52 -128v-809q0 -74 -52 -127t-128 -53h-755q-37 0 -71 14t-58.5 38.5t-39 57.5t-14.5 70zM678 1155l293 451h409l-293 -451h-409zM893 37q0 -25 17.5 -42.5t41.5 -17.5h172q27 0 44.5 17.5t17.5 42.5v803 q0 27 -17.5 44t-44.5 17h-172q-25 0 -42 -17.5t-17 -43.5v-803z" />
<glyph unicode="&#xf7;" d="M510 674v123h1036v-123h-1036zM866 311v238h273q23 0 37 -15.5t14 -37.5v-238h-272q-23 0 -37.5 15.5t-14.5 37.5zM866 977v237h273q23 0 37 -15t14 -38v-237h-272q-23 0 -37.5 15t-14.5 38z" />
<glyph unicode="&#xf9;" d="M393 29v1056h414v-1054q0 -23 17.5 -40.5t41.5 -17.5h187q27 0 44 17.5t17 40.5v1054h414v-1054q0 -23 17.5 -40.5t41.5 -17.5h88v-125h-147q-111 0 -207 58q-96 -57 -207 -58h-539q-37 0 -70.5 14.5t-58 39t-39 57.5t-14.5 70zM539 1634h409l295 -450h-409z" />
<glyph unicode="&#xfa;" d="M383 29v1056h412v-1054q0 -23 18 -40.5t43 -17.5h186q25 0 42.5 17.5t17.5 40.5v1054h414v-1054q0 -23 18 -40.5t43 -17.5h88v-125h-149q-111 0 -207 58q-96 -57 -207 -58h-539q-37 0 -69.5 14.5t-57 39t-39 57.5t-14.5 70zM631 1184l295 450h409l-295 -450h-409z" />
<glyph unicode="&#xfc;" d="M428 133v887h414v-885q0 -25 17.5 -42t41.5 -17h186q25 0 43.5 17.5t18.5 41.5v885h412l2 -885q0 -25 17 -42t42 -17h88v-123h-147q-57 0 -109.5 14.5t-97.5 40.5q-47 -27 -99.5 -41t-107.5 -14h-539q-76 0 -129 52t-53 128zM528 1198v238h273q23 0 38 -15.5t15 -38.5 v-237h-272q-23 0 -38.5 15.5t-15.5 37.5zM1116 1198v238h275q23 0 37 -15.5t14 -38.5v-237h-273q-23 0 -38 15.5t-15 37.5z" />
<glyph unicode="&#x2000;" horiz-adv-x="817" />
<glyph unicode="&#x2001;" horiz-adv-x="1634" />
<glyph unicode="&#x2002;" horiz-adv-x="817" />
<glyph unicode="&#x2003;" horiz-adv-x="1634" />
<glyph unicode="&#x2004;" horiz-adv-x="544" />
<glyph unicode="&#x2005;" horiz-adv-x="408" />
<glyph unicode="&#x2006;" horiz-adv-x="272" />
<glyph unicode="&#x2007;" horiz-adv-x="272" />
<glyph unicode="&#x2008;" horiz-adv-x="204" />
<glyph unicode="&#x2009;" horiz-adv-x="326" />
<glyph unicode="&#x200a;" horiz-adv-x="90" />
<glyph unicode="&#x2010;" horiz-adv-x="966" d="M123 674v123h721v-123h-721z" />
<glyph unicode="&#x2011;" horiz-adv-x="966" d="M123 674v123h721v-123h-721z" />
<glyph unicode="&#x2012;" horiz-adv-x="966" d="M123 674v123h721v-123h-721z" />
<glyph unicode="&#x2013;" horiz-adv-x="1269" d="M123 674v123h1024v-123h-1024z" />
<glyph unicode="&#x2014;" d="M0 662v122h2056v-122h-2056z" />
<glyph unicode="&#x2018;" d="M1399 1047l45 469h270l-137 -469h-178z" />
<glyph unicode="&#x2019;" d="M362 1047l48 469h268l-137 -469h-179z" />
<glyph unicode="&#x201c;" d="M1208 1047l47 469h269l-138 -469h-178zM1599 1047l48 469h268l-137 -469h-179z" />
<glyph unicode="&#x201d;" d="M152 1047l47 469h268l-137 -469h-178zM545 1047l45 469h270l-137 -469h-178z" />
<glyph unicode="&#x2022;" d="M831 582v329h334q20 0 34.5 -14t14.5 -37v-328h-331q-23 0 -37.5 14.5t-14.5 35.5z" />
<glyph unicode="&#x2026;" d="M193 641v227h262q20 0 34.5 -14t14.5 -35v-227h-260q-23 0 -37 14.5t-14 34.5zM877 641v227h260q23 0 37 -14t14 -35v-227h-260q-23 0 -37 14.5t-14 34.5zM1561 641v227h260q23 0 37 -14t14 -35v-227h-260q-23 0 -37 14.5t-14 34.5z" />
<glyph unicode="&#x202f;" horiz-adv-x="326" />
<glyph unicode="&#x205f;" horiz-adv-x="408" />
<glyph unicode="&#x20ac;" d="M270 496v122h191v203h-191v123h191v461q0 76 53 128t129 52h971q76 0 129 -52t53 -128v-307h-414v303q0 27 -17 44t-42 17h-389q-25 0 -42.5 -17.5t-17.5 -43.5v-457h838v-123h-838v-203h838v-122h-838v-447q0 -25 17.5 -41t42.5 -16h389q25 0 42 16.5t17 40.5v305h414 v-307q0 -37 -14.5 -69.5t-39 -57t-58 -39t-70.5 -14.5h-971q-37 0 -70.5 14.5t-58.5 39t-39 57t-14 69.5v449h-191z" />
<glyph unicode="&#x25fc;" horiz-adv-x="1034" d="M0 0v1034h1034v-1034h-1034z" />
</font>
</defs>
</svg>
